<mxfile host="app.diagrams.net" modified="2021-09-29T15:39:23.702Z" agent="5.0 (Windows NT 10.0; Win64; x64) AppleWebKit/537.36 (KHTML, like Gecko) Chrome/94.0.4606.61 Safari/537.36" etag="4Yx5AXTtq7e2poiq1BOP" version="15.3.8" type="github">
  <diagram id="DJSuSVDZlaicqns8vHKC" name="Page-1">
    <mxGraphModel dx="1069" dy="1346" grid="1" gridSize="10" guides="1" tooltips="1" connect="1" arrows="1" fold="1" page="1" pageScale="1" pageWidth="1169" pageHeight="827" math="0" shadow="0">
      <root>
        <mxCell id="0" />
        <mxCell id="1" parent="0" />
        <mxCell id="y1OyXAscInGBB207TFrI-1" value="Office Employee" style="swimlane;childLayout=stackLayout;horizontal=1;startSize=30;horizontalStack=0;rounded=1;fontSize=14;fontStyle=0;strokeWidth=2;resizeParent=0;resizeLast=1;shadow=0;dashed=0;align=center;gradientDirection=radial;fontColor=#FF0000;" vertex="1" parent="1">
          <mxGeometry x="40" y="-720" width="170" height="180" as="geometry" />
        </mxCell>
        <mxCell id="y1OyXAscInGBB207TFrI-7" value="" style="endArrow=none;html=1;rounded=0;fontColor=#FF0000;" edge="1" parent="y1OyXAscInGBB207TFrI-1">
          <mxGeometry relative="1" as="geometry">
            <mxPoint y="70" as="sourcePoint" />
            <mxPoint x="170" y="70" as="targetPoint" />
          </mxGeometry>
        </mxCell>
        <mxCell id="y1OyXAscInGBB207TFrI-2" value="-Email&#xa;#password&#xa;&#xa;+See_regular_routine()&#xa;+Req_for_urgent_trip()&#xa;-Get_acceptance_msg()&#xa;-Give_review_about_service()" style="align=left;strokeColor=none;fillColor=none;spacingLeft=4;fontSize=12;verticalAlign=top;resizable=0;rotatable=0;part=1;" vertex="1" parent="y1OyXAscInGBB207TFrI-1">
          <mxGeometry y="30" width="170" height="150" as="geometry" />
        </mxCell>
        <mxCell id="y1OyXAscInGBB207TFrI-5" value="Admin" style="swimlane;childLayout=stackLayout;horizontal=1;startSize=30;horizontalStack=0;rounded=1;fontSize=14;fontStyle=0;strokeWidth=2;resizeParent=0;resizeLast=1;shadow=0;dashed=0;align=center;gradientDirection=radial;fontColor=#FF0000;" vertex="1" parent="1">
          <mxGeometry x="390" y="-720" width="170" height="180" as="geometry" />
        </mxCell>
        <mxCell id="y1OyXAscInGBB207TFrI-8" value="" style="endArrow=none;html=1;rounded=0;fontColor=#FF0000;entryX=1;entryY=0.25;entryDx=0;entryDy=0;" edge="1" parent="y1OyXAscInGBB207TFrI-5" target="y1OyXAscInGBB207TFrI-6">
          <mxGeometry relative="1" as="geometry">
            <mxPoint y="70" as="sourcePoint" />
            <mxPoint x="160" y="70" as="targetPoint" />
          </mxGeometry>
        </mxCell>
        <mxCell id="y1OyXAscInGBB207TFrI-6" value="-Email&#xa;+password&#xa;&#xa;-Schedule_regular_routine()&#xa;-Get_request_message()&#xa;-Check_driver_availability()&#xa;-Manage_request_message()&#xa;-Inform_transport_user()&#xa;-Inform_driver()" style="align=left;strokeColor=none;fillColor=none;spacingLeft=4;fontSize=12;verticalAlign=top;resizable=0;rotatable=0;part=1;" vertex="1" parent="y1OyXAscInGBB207TFrI-5">
          <mxGeometry y="30" width="170" height="150" as="geometry" />
        </mxCell>
        <mxCell id="y1OyXAscInGBB207TFrI-13" value="Multiplicity" style="rounded=0;whiteSpace=wrap;html=1;fontColor=#FF0000;gradientDirection=radial;" vertex="1" parent="1">
          <mxGeometry x="240" y="-720" width="120" height="30" as="geometry" />
        </mxCell>
        <mxCell id="y1OyXAscInGBB207TFrI-14" value="Multiplicity" style="rounded=0;whiteSpace=wrap;html=1;fontColor=#FF0000;gradientDirection=radial;" vertex="1" parent="1">
          <mxGeometry x="600" y="-720" width="120" height="30" as="geometry" />
        </mxCell>
        <mxCell id="y1OyXAscInGBB207TFrI-18" value="Driver" style="swimlane;childLayout=stackLayout;horizontal=1;startSize=30;horizontalStack=0;rounded=1;fontSize=14;fontStyle=0;strokeWidth=2;resizeParent=0;resizeLast=1;shadow=0;dashed=0;align=center;gradientDirection=radial;fontColor=#FF0000;" vertex="1" parent="1">
          <mxGeometry x="740" y="-720" width="170" height="180" as="geometry" />
        </mxCell>
        <mxCell id="y1OyXAscInGBB207TFrI-19" value="" style="endArrow=none;html=1;rounded=0;fontColor=#FF0000;entryX=1;entryY=0.25;entryDx=0;entryDy=0;" edge="1" parent="y1OyXAscInGBB207TFrI-18" target="y1OyXAscInGBB207TFrI-20">
          <mxGeometry relative="1" as="geometry">
            <mxPoint y="70" as="sourcePoint" />
            <mxPoint x="160" y="70" as="targetPoint" />
          </mxGeometry>
        </mxCell>
        <mxCell id="y1OyXAscInGBB207TFrI-20" value="-Email&#xa;+password&#xa;&#xa;-Upload_own_info()&#xa;-Update_the_availability()&#xa;+Upload-if-in-leave()&#xa;+Upload_fuel_bill_receipt()&#xa;" style="align=left;strokeColor=none;fillColor=none;spacingLeft=4;fontSize=12;verticalAlign=top;resizable=0;rotatable=0;part=1;" vertex="1" parent="y1OyXAscInGBB207TFrI-18">
          <mxGeometry y="30" width="170" height="150" as="geometry" />
        </mxCell>
        <mxCell id="y1OyXAscInGBB207TFrI-21" value="" style="endArrow=classic;html=1;fontColor=#FF0000;exitX=1.01;exitY=0.461;exitDx=0;exitDy=0;exitPerimeter=0;entryX=-0.005;entryY=0.461;entryDx=0;entryDy=0;entryPerimeter=0;" edge="1" parent="1" source="y1OyXAscInGBB207TFrI-2" target="y1OyXAscInGBB207TFrI-6">
          <mxGeometry width="50" height="50" relative="1" as="geometry">
            <mxPoint x="550" y="-530" as="sourcePoint" />
            <mxPoint x="600" y="-580" as="targetPoint" />
          </mxGeometry>
        </mxCell>
        <mxCell id="y1OyXAscInGBB207TFrI-22" value="1.... *  Association      1     " style="text;strokeColor=none;fillColor=none;align=left;verticalAlign=middle;spacingLeft=4;spacingRight=4;overflow=hidden;points=[[0,0.5],[1,0.5]];portConstraint=eastwest;rotatable=0;fontColor=#FF0000;" vertex="1" parent="1">
          <mxGeometry x="230" y="-650" width="150" height="30" as="geometry" />
        </mxCell>
        <mxCell id="y1OyXAscInGBB207TFrI-23" value="1  Association      1....*    " style="text;strokeColor=none;fillColor=none;align=left;verticalAlign=middle;spacingLeft=4;spacingRight=4;overflow=hidden;points=[[0,0.5],[1,0.5]];portConstraint=eastwest;rotatable=0;fontColor=#FF0000;" vertex="1" parent="1">
          <mxGeometry x="560" y="-650" width="150" height="30" as="geometry" />
        </mxCell>
        <mxCell id="y1OyXAscInGBB207TFrI-25" value="" style="endArrow=classic;html=1;fontColor=#FF0000;exitX=0.027;exitY=1.043;exitDx=0;exitDy=0;exitPerimeter=0;entryX=-0.016;entryY=0.463;entryDx=0;entryDy=0;entryPerimeter=0;" edge="1" parent="1" source="y1OyXAscInGBB207TFrI-23" target="y1OyXAscInGBB207TFrI-20">
          <mxGeometry width="50" height="50" relative="1" as="geometry">
            <mxPoint x="660" y="-600" as="sourcePoint" />
            <mxPoint x="710" y="-650" as="targetPoint" />
          </mxGeometry>
        </mxCell>
        <mxCell id="y1OyXAscInGBB207TFrI-26" value="" style="endArrow=classic;html=1;fontColor=#FF0000;exitX=0.25;exitY=1;exitDx=0;exitDy=0;" edge="1" parent="1" source="y1OyXAscInGBB207TFrI-2">
          <mxGeometry width="50" height="50" relative="1" as="geometry">
            <mxPoint x="380" y="-500" as="sourcePoint" />
            <mxPoint x="80" y="-360" as="targetPoint" />
          </mxGeometry>
        </mxCell>
        <mxCell id="y1OyXAscInGBB207TFrI-27" value="" style="endArrow=classic;html=1;fontColor=#FF0000;exitX=0.706;exitY=1;exitDx=0;exitDy=0;exitPerimeter=0;" edge="1" parent="1" source="y1OyXAscInGBB207TFrI-2">
          <mxGeometry width="50" height="50" relative="1" as="geometry">
            <mxPoint x="380" y="-320" as="sourcePoint" />
            <mxPoint x="440" y="-480" as="targetPoint" />
            <Array as="points">
              <mxPoint x="160" y="-520" />
              <mxPoint x="440" y="-520" />
            </Array>
          </mxGeometry>
        </mxCell>
        <mxCell id="y1OyXAscInGBB207TFrI-28" value="Login" style="swimlane;childLayout=stackLayout;horizontal=1;startSize=30;horizontalStack=0;rounded=1;fontSize=14;fontStyle=0;strokeWidth=2;resizeParent=0;resizeLast=1;shadow=0;dashed=0;align=center;fontColor=#FF0000;gradientDirection=radial;" vertex="1" parent="1">
          <mxGeometry x="400" y="-480" width="160" height="160" as="geometry" />
        </mxCell>
        <mxCell id="y1OyXAscInGBB207TFrI-29" value="+Type&#xa;-Name&#xa;-Address&#xa;-Phone&#xa;-Email&#xa;-" style="align=left;strokeColor=none;fillColor=none;spacingLeft=4;fontSize=12;verticalAlign=top;resizable=0;rotatable=0;part=1;" vertex="1" parent="y1OyXAscInGBB207TFrI-28">
          <mxGeometry y="30" width="160" height="130" as="geometry" />
        </mxCell>
      </root>
    </mxGraphModel>
  </diagram>
</mxfile>
